<svg width="331" height="345" viewBox="0 0 331 345" fill="none" xmlns="http://www.w3.org/2000/svg">
<path d="M319.667 6C319.667 8.94552 322.054 11.3333 325 11.3333C327.946 11.3333 330.333 8.94552 330.333 6C330.333 3.05448 327.946 0.666667 325 0.666667C322.054 0.666667 319.667 3.05448 319.667 6ZM0 339L10 344.773V333.227L0 339ZM324 6V161H326V6H324ZM324 161V205.25H326V161H324ZM191.75 338H9V340H191.75V338ZM235.5 293.999C235.5 318.168 215.905 338 191.75 338V340C217.024 340 237.5 319.258 237.5 293.999H235.5ZM280.75 248.5C255.752 248.5 235.5 269.015 235.5 293.999H237.5C237.5 270.105 256.871 250.5 280.75 250.5V248.5ZM324 205.25C324 229.136 304.636 248.5 280.75 248.5V250.5C305.741 250.5 326 230.241 326 205.25H324Z" fill="#DDDDDD" fill-opacity="0.5"/>
</svg>
