<svg width="504" height="600" viewBox="0 0 504 600" fill="none" xmlns="http://www.w3.org/2000/svg">
<mask id="path-1-inside-1_195_200" fill="white">
<path fill-rule="evenodd" clip-rule="evenodd" d="M300 600C464.684 600 598.375 467.304 599.985 303.001C374.59 321.101 311.76 388.714 300 600ZM300 0C178.43 208.425 165.727 343.147 300 600C134.315 600 0 465.685 0 300C0 134.315 134.315 0 300 0ZM599.985 296.999C598.375 132.696 464.684 0 300 0C311.76 211.286 374.59 278.899 599.985 296.999Z"/>
</mask>
<path fill-rule="evenodd" clip-rule="evenodd" d="M300 600C464.684 600 598.375 467.304 599.985 303.001C374.59 321.101 311.76 388.714 300 600ZM300 0C178.43 208.425 165.727 343.147 300 600C134.315 600 0 465.685 0 300C0 134.315 134.315 0 300 0ZM599.985 296.999C598.375 132.696 464.684 0 300 0C311.76 211.286 374.59 278.899 599.985 296.999Z" fill="#ECFF49" fill-opacity="0.8"/>
<path d="M599.985 303.001L601.985 303.021L602.007 300.832L599.825 301.008L599.985 303.001ZM599.985 296.999L599.825 298.992L602.007 299.168L601.985 296.979L599.985 296.999ZM300 602C465.782 602 600.364 468.42 601.985 303.021L597.985 302.982C596.386 466.189 463.586 598 300 598V602ZM599.825 301.008C487.054 310.063 414.354 331.526 368.462 377.645C322.556 423.778 303.888 494.165 298.003 599.889L301.997 600.111C307.872 494.549 326.499 425.487 371.297 380.467C416.109 335.433 487.522 314.039 600.145 304.995L599.825 301.008ZM301.772 599.073C234.702 470.772 204.479 373.229 206.059 281.874C207.638 190.535 241.012 105.101 301.728 1.00767L298.272 -1.00767C237.418 103.323 203.656 189.463 202.059 281.805C200.463 374.13 231.026 472.375 298.228 600.927L301.772 599.073ZM-2 300C-2 466.79 133.21 602 300 602V598C135.419 598 2 464.581 2 300H-2ZM300 -2C133.21 -2 -2 133.21 -2 300H2C2 135.419 135.419 2 300 2V-2ZM601.985 296.979C600.364 131.58 465.782 -2 300 -2V2C463.586 2 596.386 133.811 597.985 297.018L601.985 296.979ZM600.145 295.005C487.522 285.961 416.109 264.567 371.297 219.533C326.499 174.513 307.872 105.451 301.997 -0.111146L298.003 0.111146C303.888 105.835 322.556 176.222 368.462 222.355C414.354 268.474 487.054 289.937 599.825 298.992L600.145 295.005Z" fill="#ECFF49" mask="url(#path-1-inside-1_195_200)"/>
</svg>
