<svg width="464" height="100" viewBox="0 0 464 100" fill="none" xmlns="http://www.w3.org/2000/svg">
<mask id="path-1-inside-1_236_123" fill="white">
<path fill-rule="evenodd" clip-rule="evenodd" d="M50 100C77.4473 100 99.7292 77.8841 99.9976 50.5002C62.4317 53.5168 51.96 64.7857 50 100ZM50 0C29.7383 34.7374 27.6212 57.1912 50 100C22.3858 100 0 77.6142 0 50C0 22.3858 22.3858 0 50 0ZM50 50L50 54.0404L50 100L50 50ZM99.9976 49.4998C99.7292 22.1159 77.4473 0 50 0C51.96 35.2143 62.4317 46.4832 99.9976 49.4998Z"/>
</mask>
<path d="M99.9976 50.5002L100.998 50.51L101.008 49.4158L99.9175 49.5034L99.9976 50.5002ZM50 54.0404L49 54.0404V54.0404H50ZM50 50H51L49 50L50 50ZM99.9976 49.4998L99.9175 50.4966L101.008 50.5842L100.998 49.49L99.9976 49.4998ZM50 101C77.9963 101 100.724 78.4417 100.998 50.51L98.9976 50.4904C98.7346 77.3264 76.8983 99 50 99V101ZM99.9175 49.5034C81.0977 51.0147 68.7664 54.6033 60.9377 62.4706C53.1023 70.3449 49.9838 82.2967 49.0015 99.9444L50.9985 100.056C51.9762 82.489 55.0736 71.1992 62.3554 63.8814C69.6442 56.5566 81.3315 53.0024 100.078 51.497L99.9175 49.5034ZM49.1362 -0.503837C38.9707 16.9242 33.2789 31.3986 33.01 46.9559C32.7411 62.5053 37.8917 78.9964 49.1138 100.463L50.8862 99.5367C39.7295 78.1948 34.7492 62.0546 35.0097 46.9905C35.27 31.9344 40.7676 17.8132 50.8638 0.503837L49.1362 -0.503837ZM-1 50C-1 78.1665 21.8335 101 50 101V99C22.938 99 1 77.062 1 50H-1ZM50 -1C21.8335 -1 -1 21.8335 -1 50H1C1 22.938 22.938 1 50 1V-1ZM51 54.0404L51 50L49 50L49 54.0404L51 54.0404ZM51 100L51 54.0404H49L49 100H51ZM51 100L51 50H49L49 100H51ZM100.998 49.49C100.724 21.5582 77.9963 -1 50 -1V1C76.8983 1 98.7346 22.6736 98.9976 49.5096L100.998 49.49ZM100.078 48.503C81.3315 46.9976 69.6442 43.4434 62.3554 36.1186C55.0736 28.8008 51.9762 17.511 50.9985 -0.0555729L49.0015 0.0555729C49.9838 17.7033 53.1023 29.6551 60.9377 37.5294C68.7664 45.3967 81.0977 48.9853 99.9175 50.4966L100.078 48.503Z" fill="#A5A5A5" mask="url(#path-1-inside-1_236_123)"/>
<mask id="path-3-outside-2_236_123" maskUnits="userSpaceOnUse" x="134" y="27" width="330" height="43" fill="black">
<rect fill="white" x="134" y="27" width="330" height="43"/>
<path d="M135.322 49.154C135.322 45.482 136.15 42.188 137.806 39.272C139.462 36.32 141.712 34.016 144.556 32.36C147.436 30.704 150.622 29.876 154.114 29.876C158.218 29.876 161.8 30.866 164.86 32.846C167.92 34.826 170.152 37.634 171.556 41.27H165.67C164.626 39.002 163.114 37.256 161.134 36.032C159.19 34.808 156.85 34.196 154.114 34.196C151.486 34.196 149.128 34.808 147.04 36.032C144.952 37.256 143.314 39.002 142.126 41.27C140.938 43.502 140.344 46.13 140.344 49.154C140.344 52.142 140.938 54.77 142.126 57.038C143.314 59.27 144.952 60.998 147.04 62.222C149.128 63.446 151.486 64.058 154.114 64.058C156.85 64.058 159.19 63.464 161.134 62.276C163.114 61.052 164.626 59.306 165.67 57.038H171.556C170.152 60.638 167.92 63.428 164.86 65.408C161.8 67.352 158.218 68.324 154.114 68.324C150.622 68.324 147.436 67.514 144.556 65.894C141.712 64.238 139.462 61.952 137.806 59.036C136.15 56.12 135.322 52.826 135.322 49.154ZM191.777 68.486C189.005 68.486 186.485 67.856 184.217 66.596C181.985 65.336 180.221 63.554 178.925 61.25C177.665 58.91 177.035 56.21 177.035 53.15C177.035 50.126 177.683 47.462 178.979 45.158C180.311 42.818 182.111 41.036 184.379 39.812C186.647 38.552 189.185 37.922 191.993 37.922C194.801 37.922 197.339 38.552 199.607 39.812C201.875 41.036 203.657 42.8 204.953 45.104C206.285 47.408 206.951 50.09 206.951 53.15C206.951 56.21 206.267 58.91 204.899 61.25C203.567 63.554 201.749 65.336 199.445 66.596C197.141 67.856 194.585 68.486 191.777 68.486ZM191.777 64.166C193.541 64.166 195.197 63.752 196.745 62.924C198.293 62.096 199.535 60.854 200.471 59.198C201.443 57.542 201.929 55.526 201.929 53.15C201.929 50.774 201.461 48.758 200.525 47.102C199.589 45.446 198.365 44.222 196.853 43.43C195.341 42.602 193.703 42.188 191.939 42.188C190.139 42.188 188.483 42.602 186.971 43.43C185.495 44.222 184.307 45.446 183.407 47.102C182.507 48.758 182.057 50.774 182.057 53.15C182.057 55.562 182.489 57.596 183.353 59.252C184.253 60.908 185.441 62.15 186.917 62.978C188.393 63.77 190.013 64.166 191.777 64.166ZM211.576 53.096C211.576 50.072 212.188 47.426 213.412 45.158C214.636 42.854 216.31 41.072 218.434 39.812C220.594 38.552 223.006 37.922 225.67 37.922C227.974 37.922 230.116 38.462 232.096 39.542C234.076 40.586 235.588 41.972 236.632 43.7V28.04H241.6V68H236.632V62.438C235.66 64.202 234.22 65.66 232.312 66.812C230.404 67.928 228.172 68.486 225.616 68.486C222.988 68.486 220.594 67.838 218.434 66.542C216.31 65.246 214.636 63.428 213.412 61.088C212.188 58.748 211.576 56.084 211.576 53.096ZM236.632 53.15C236.632 50.918 236.182 48.974 235.282 47.318C234.382 45.662 233.158 44.402 231.61 43.538C230.098 42.638 228.424 42.188 226.588 42.188C224.752 42.188 223.078 42.62 221.566 43.484C220.054 44.348 218.848 45.608 217.948 47.264C217.048 48.92 216.598 50.864 216.598 53.096C216.598 55.364 217.048 57.344 217.948 59.036C218.848 60.692 220.054 61.97 221.566 62.87C223.078 63.734 224.752 64.166 226.588 64.166C228.424 64.166 230.098 63.734 231.61 62.87C233.158 61.97 234.382 60.692 235.282 59.036C236.182 57.344 236.632 55.382 236.632 53.15ZM264.592 37.868C266.824 37.868 268.84 38.354 270.64 39.326C272.44 40.262 273.844 41.684 274.852 43.592C275.896 45.5 276.418 47.822 276.418 50.558V68H271.558V51.26C271.558 48.308 270.82 46.058 269.344 44.51C267.868 42.926 265.852 42.134 263.296 42.134C260.704 42.134 258.634 42.944 257.086 44.564C255.574 46.184 254.818 48.542 254.818 51.638V68H249.904V28.04H254.818V42.62C255.79 41.108 257.122 39.938 258.814 39.11C260.542 38.282 262.468 37.868 264.592 37.868ZM310.689 38.408V68H305.775V63.626C304.839 65.138 303.525 66.326 301.833 67.19C300.177 68.018 298.341 68.432 296.325 68.432C294.021 68.432 291.951 67.964 290.115 67.028C288.279 66.056 286.821 64.616 285.741 62.708C284.697 60.8 284.175 58.478 284.175 55.742V38.408H289.035V55.094C289.035 58.01 289.773 60.26 291.249 61.844C292.725 63.392 294.741 64.166 297.297 64.166C299.925 64.166 301.995 63.356 303.507 61.736C305.019 60.116 305.775 57.758 305.775 54.662V38.408H310.689ZM323.9 43.916C324.908 42.152 326.384 40.712 328.328 39.596C330.272 38.48 332.486 37.922 334.97 37.922C337.634 37.922 340.028 38.552 342.152 39.812C344.276 41.072 345.95 42.854 347.174 45.158C348.398 47.426 349.01 50.072 349.01 53.096C349.01 56.084 348.398 58.748 347.174 61.088C345.95 63.428 344.258 65.246 342.098 66.542C339.974 67.838 337.598 68.486 334.97 68.486C332.414 68.486 330.164 67.928 328.22 66.812C326.312 65.696 324.872 64.274 323.9 62.546V68H318.986V28.04H323.9V43.916ZM343.988 53.096C343.988 50.864 343.538 48.92 342.638 47.264C341.738 45.608 340.514 44.348 338.966 43.484C337.454 42.62 335.78 42.188 333.944 42.188C332.144 42.188 330.47 42.638 328.922 43.538C327.41 44.402 326.186 45.68 325.25 47.372C324.35 49.028 323.9 50.954 323.9 53.15C323.9 55.382 324.35 57.344 325.25 59.036C326.186 60.692 327.41 61.97 328.922 62.87C330.47 63.734 332.144 64.166 333.944 64.166C335.78 64.166 337.454 63.734 338.966 62.87C340.514 61.97 341.738 60.692 342.638 59.036C343.538 57.344 343.988 55.364 343.988 53.096Z"/>
<path d="M357.044 68.324C356.108 68.324 355.316 68 354.668 67.352C354.02 66.704 353.696 65.912 353.696 64.976C353.696 64.04 354.02 63.248 354.668 62.6C355.316 61.952 356.108 61.628 357.044 61.628C357.944 61.628 358.7 61.952 359.312 62.6C359.96 63.248 360.284 64.04 360.284 64.976C360.284 65.912 359.96 66.704 359.312 67.352C358.7 68 357.944 68.324 357.044 68.324ZM364.98 53.096C364.98 50.072 365.592 47.426 366.816 45.158C368.04 42.854 369.714 41.072 371.838 39.812C373.998 38.552 376.41 37.922 379.074 37.922C381.378 37.922 383.52 38.462 385.5 39.542C387.48 40.586 388.992 41.972 390.036 43.7V28.04H395.004V68H390.036V62.438C389.064 64.202 387.624 65.66 385.716 66.812C383.808 67.928 381.576 68.486 379.02 68.486C376.392 68.486 373.998 67.838 371.838 66.542C369.714 65.246 368.04 63.428 366.816 61.088C365.592 58.748 364.98 56.084 364.98 53.096ZM390.036 53.15C390.036 50.918 389.586 48.974 388.686 47.318C387.786 45.662 386.562 44.402 385.014 43.538C383.502 42.638 381.828 42.188 379.992 42.188C378.156 42.188 376.482 42.62 374.97 43.484C373.458 44.348 372.252 45.608 371.352 47.264C370.452 48.92 370.002 50.864 370.002 53.096C370.002 55.364 370.452 57.344 371.352 59.036C372.252 60.692 373.458 61.97 374.97 62.87C376.482 63.734 378.156 64.166 379.992 64.166C381.828 64.166 383.502 63.734 385.014 62.87C386.562 61.97 387.786 60.692 388.686 59.036C389.586 57.344 390.036 55.382 390.036 53.15ZM430.308 52.07C430.308 53.006 430.254 53.996 430.146 55.04H406.494C406.674 57.956 407.664 60.242 409.464 61.898C411.3 63.518 413.514 64.328 416.106 64.328C418.23 64.328 419.994 63.842 421.398 62.87C422.838 61.862 423.846 60.53 424.422 58.874H429.714C428.922 61.718 427.338 64.04 424.962 65.84C422.586 67.604 419.634 68.486 416.106 68.486C413.298 68.486 410.778 67.856 408.546 66.596C406.35 65.336 404.622 63.554 403.362 61.25C402.102 58.91 401.472 56.21 401.472 53.15C401.472 50.09 402.084 47.408 403.308 45.104C404.532 42.8 406.242 41.036 408.438 39.812C410.67 38.552 413.226 37.922 416.106 37.922C418.914 37.922 421.398 38.534 423.558 39.758C425.718 40.982 427.374 42.674 428.526 44.834C429.714 46.958 430.308 49.37 430.308 52.07ZM425.232 51.044C425.232 49.172 424.818 47.57 423.99 46.238C423.162 44.87 422.028 43.844 420.588 43.16C419.184 42.44 417.618 42.08 415.89 42.08C413.406 42.08 411.282 42.872 409.518 44.456C407.79 46.04 406.8 48.236 406.548 51.044H425.232ZM447.811 63.464L456.991 38.408H462.229L450.619 68H444.895L433.285 38.408H438.577L447.811 63.464Z"/>
</mask>
<path d="M137.806 39.272L138.676 39.7658L138.678 39.7613L137.806 39.272ZM144.556 32.36L144.058 31.4931L144.053 31.4958L144.556 32.36ZM164.86 32.846L165.403 32.0064L164.86 32.846ZM171.556 41.27V42.27H173.014L172.489 40.9098L171.556 41.27ZM165.67 41.27L164.762 41.6881L165.029 42.27H165.67V41.27ZM161.134 36.032L160.601 36.8783L160.608 36.8826L161.134 36.032ZM147.04 36.032L147.546 36.8947H147.546L147.04 36.032ZM142.126 41.27L143.009 41.7399L143.012 41.734L142.126 41.27ZM142.126 57.038L141.24 57.502L141.243 57.5078L142.126 57.038ZM147.04 62.222L147.546 61.3593H147.546L147.04 62.222ZM161.134 62.276L161.655 63.1293L161.66 63.1266L161.134 62.276ZM165.67 57.038V56.038H165.029L164.762 56.6199L165.67 57.038ZM171.556 57.038L172.488 57.4013L173.019 56.038H171.556V57.038ZM164.86 65.408L165.396 66.2521L165.403 66.2476L164.86 65.408ZM144.556 65.894L144.053 66.7582L144.059 66.7619L144.066 66.7656L144.556 65.894ZM137.806 59.036L138.676 58.5422L137.806 59.036ZM136.322 49.154C136.322 45.6382 137.113 42.5172 138.676 39.7658L136.936 38.7782C135.187 41.8588 134.322 45.3258 134.322 49.154H136.322ZM138.678 39.7613C140.249 36.9603 142.374 34.7877 145.059 33.2242L144.053 31.4958C141.05 33.2443 138.675 35.6797 136.934 38.7827L138.678 39.7613ZM145.054 33.2269C147.775 31.6626 150.788 30.876 154.114 30.876V28.876C150.456 28.876 147.097 29.7454 144.058 31.4931L145.054 33.2269ZM154.114 30.876C158.05 30.876 161.438 31.8231 164.317 33.6856L165.403 32.0064C162.162 29.9089 158.386 28.876 154.114 28.876V30.876ZM164.317 33.6856C167.187 35.5428 169.29 38.1766 170.623 41.6302L172.489 40.9098C171.014 37.0914 168.653 34.1092 165.403 32.0064L164.317 33.6856ZM171.556 40.27H165.67V42.27H171.556V40.27ZM166.578 40.8519C165.458 38.4188 163.819 36.5164 161.66 35.1814L160.608 36.8826C162.409 37.9956 163.794 39.5852 164.762 41.6881L166.578 40.8519ZM161.667 35.1858C159.535 33.8435 157.002 33.196 154.114 33.196V35.196C156.698 35.196 158.845 35.7725 160.601 36.8782L161.667 35.1858ZM154.114 33.196C151.324 33.196 148.789 33.8477 146.534 35.1693L147.546 36.8947C149.467 35.7682 151.648 35.196 154.114 35.196V33.196ZM146.534 35.1693C144.275 36.4936 142.51 38.3822 141.24 40.806L143.012 41.734C144.118 39.6218 145.629 38.0184 147.546 36.8947L146.534 35.1693ZM141.243 40.8001C139.965 43.2026 139.344 45.9981 139.344 49.154H141.344C141.344 46.2619 141.911 43.8014 143.009 41.7398L141.243 40.8001ZM139.344 49.154C139.344 52.2766 139.966 55.0687 141.24 57.502L143.012 56.574C141.91 54.4713 141.344 52.0074 141.344 49.154H139.344ZM141.243 57.5078C142.514 59.8955 144.279 61.7629 146.534 63.0847L147.546 61.3593C145.625 60.2331 144.114 58.6445 143.009 56.5681L141.243 57.5078ZM146.534 63.0847C148.789 64.4062 151.324 65.058 154.114 65.058V63.058C151.648 63.058 149.467 62.4858 147.546 61.3593L146.534 63.0847ZM154.114 65.058C156.997 65.058 159.525 64.4309 161.655 63.1293L160.613 61.4227C158.855 62.4971 156.703 63.058 154.114 63.058V65.058ZM161.66 63.1266C163.819 61.7916 165.458 59.8892 166.578 57.4561L164.762 56.6199C163.794 58.7228 162.409 60.3124 160.608 61.4254L161.66 63.1266ZM165.67 58.038H171.556V56.038H165.67V58.038ZM170.624 56.6747C169.292 60.0916 167.19 62.7095 164.317 64.5684L165.403 66.2476C168.65 64.1465 171.012 61.1844 172.488 57.4013L170.624 56.6747ZM164.324 64.5639C161.445 66.3931 158.054 67.324 154.114 67.324V69.324C158.382 69.324 162.155 68.3109 165.396 66.2521L164.324 64.5639ZM154.114 67.324C150.784 67.324 147.768 66.5534 145.046 65.0224L144.066 66.7656C147.104 68.4746 150.46 69.324 154.114 69.324V67.324ZM145.059 65.0298C142.371 63.4645 140.246 61.3076 138.676 58.5422L136.936 59.5298C138.678 62.5964 141.053 65.0115 144.053 66.7582L145.059 65.0298ZM138.676 58.5422C137.113 55.7908 136.322 52.6698 136.322 49.154H134.322C134.322 52.9822 135.187 56.4492 136.936 59.5298L138.676 58.5422ZM184.217 66.596L183.725 67.4668L183.731 67.4702L184.217 66.596ZM178.925 61.25L178.044 61.7241L178.049 61.7322L178.053 61.7403L178.925 61.25ZM178.979 45.158L178.11 44.6633L178.107 44.6677L178.979 45.158ZM184.379 39.812L184.854 40.6921L184.865 40.6862L184.379 39.812ZM199.607 39.812L199.121 40.6862L199.132 40.692L199.607 39.812ZM204.953 45.104L204.081 45.5943L204.087 45.6045L204.953 45.104ZM204.899 61.25L204.036 60.7453L204.033 60.7495L204.899 61.25ZM199.445 66.596L199.925 67.4734L199.445 66.596ZM200.471 59.198L199.608 58.6918L199.604 58.6988L199.6 58.7059L200.471 59.198ZM196.853 43.43L196.373 44.3071L196.381 44.3115L196.389 44.3158L196.853 43.43ZM186.971 43.43L187.444 44.3112L187.451 44.3071L186.971 43.43ZM183.407 47.102L184.286 47.5795L183.407 47.102ZM183.353 59.252L182.466 59.7146L182.47 59.7221L182.474 59.7295L183.353 59.252ZM186.917 62.978L186.428 63.8501L186.436 63.8547L186.444 63.8592L186.917 62.978ZM191.777 67.486C189.163 67.486 186.812 66.8937 184.703 65.7218L183.731 67.4702C186.158 68.8183 188.847 69.486 191.777 69.486V67.486ZM184.708 65.7252C182.641 64.5579 181.006 62.9098 179.796 60.7597L178.053 61.7403C179.436 64.1982 181.329 66.1141 183.725 67.4668L184.708 65.7252ZM179.805 60.7759C178.635 58.6023 178.035 56.0698 178.035 53.15H176.035C176.035 56.3502 176.695 59.2177 178.044 61.7241L179.805 60.7759ZM178.035 53.15C178.035 50.2727 178.65 47.7822 179.85 45.6483L178.107 44.6677C176.716 47.1418 176.035 49.9793 176.035 53.15H178.035ZM179.848 45.6527C181.092 43.4679 182.758 41.8229 184.854 40.692L183.904 38.932C181.464 40.249 179.53 42.1681 178.11 44.6633L179.848 45.6527ZM184.865 40.6862C186.972 39.5154 189.34 38.922 191.993 38.922V36.922C189.029 36.922 186.322 37.5886 183.893 38.9378L184.865 40.6862ZM191.993 38.922C194.645 38.922 197.014 39.5154 199.121 40.6862L200.093 38.9378C197.664 37.5886 194.956 36.922 191.993 36.922V38.922ZM199.132 40.692C201.229 41.8238 202.876 43.4506 204.081 45.5943L205.824 44.6137C204.438 42.1494 202.521 40.2482 200.082 38.932L199.132 40.692ZM204.087 45.6045C205.319 47.7348 205.951 50.239 205.951 53.15H207.951C207.951 49.941 207.251 47.0812 205.819 44.6035L204.087 45.6045ZM205.951 53.15C205.951 56.056 205.303 58.5774 204.036 60.7453L205.762 61.7547C207.231 59.2426 207.951 56.364 207.951 53.15H205.951ZM204.033 60.7495C202.792 62.8971 201.106 64.5478 198.965 65.7186L199.925 67.4734C202.392 66.1242 204.342 64.2109 205.765 61.7505L204.033 60.7495ZM198.965 65.7186C196.818 66.8926 194.429 67.486 191.777 67.486V69.486C194.741 69.486 197.463 68.8194 199.925 67.4734L198.965 65.7186ZM191.777 65.166C193.705 65.166 195.523 64.7118 197.217 63.8058L196.273 62.0422C194.871 62.7922 193.377 63.166 191.777 63.166V65.166ZM197.217 63.8058C198.946 62.8809 200.32 61.4968 201.341 59.6901L199.6 58.7059C198.75 60.2112 197.64 61.3111 196.273 62.0422L197.217 63.8058ZM201.333 59.7042C202.414 57.8622 202.929 55.662 202.929 53.15H200.929C200.929 55.39 200.471 57.2218 199.608 58.6918L201.333 59.7042ZM202.929 53.15C202.929 50.6439 202.435 48.4491 201.395 46.6099L199.654 47.5941C200.487 49.0669 200.929 50.9041 200.929 53.15H202.929ZM201.395 46.6099C200.376 44.8061 199.019 43.4356 197.317 42.5442L196.389 44.3158C197.711 45.0084 198.802 46.0859 199.654 47.5941L201.395 46.6099ZM197.333 42.5529C195.67 41.6423 193.867 41.188 191.939 41.188V43.188C193.539 43.188 195.011 43.5617 196.373 44.3071L197.333 42.5529ZM191.939 41.188C189.979 41.188 188.156 41.6407 186.491 42.5529L187.451 44.3071C188.809 43.5633 190.299 43.188 191.939 43.188V41.188ZM186.498 42.5488C184.829 43.4442 183.509 44.8194 182.528 46.6245L184.286 47.5795C185.104 46.0726 186.16 44.9998 187.444 44.3112L186.498 42.5488ZM182.528 46.6245C181.53 48.4604 181.057 50.6498 181.057 53.15H183.057C183.057 50.8982 183.483 49.0556 184.286 47.5795L182.528 46.6245ZM181.057 53.15C181.057 55.6776 181.509 57.8802 182.466 59.7146L184.239 58.7894C183.469 57.3118 183.057 55.4464 183.057 53.15H181.057ZM182.474 59.7295C183.454 61.5317 184.769 62.9197 186.428 63.8501L187.406 62.1059C186.113 61.3803 185.052 60.2843 184.232 58.7745L182.474 59.7295ZM186.444 63.8592C188.073 64.7333 189.857 65.166 191.777 65.166V63.166C190.169 63.166 188.713 62.8067 187.39 62.0968L186.444 63.8592ZM213.412 45.158L214.292 45.6329L214.295 45.6272L213.412 45.158ZM218.434 39.812L217.93 38.9482L217.924 38.9519L218.434 39.812ZM232.096 39.542L231.617 40.42L231.63 40.4266L232.096 39.542ZM236.632 43.7L235.776 44.2171L237.632 47.289V43.7H236.632ZM236.632 28.04V27.04H235.632V28.04H236.632ZM241.6 28.04H242.6V27.04H241.6V28.04ZM241.6 68V69H242.6V68H241.6ZM236.632 68H235.632V69H236.632V68ZM236.632 62.438H237.632L235.756 61.9554L236.632 62.438ZM232.312 66.812L232.817 67.6753L232.829 67.6681L232.312 66.812ZM218.434 66.542L217.913 67.3957L217.919 67.3995L218.434 66.542ZM213.412 61.088L214.298 60.6245L213.412 61.088ZM231.61 43.538L231.098 44.3973L231.11 44.4044L231.123 44.4112L231.61 43.538ZM221.566 43.484L221.07 42.6158L221.566 43.484ZM217.948 47.264L218.827 47.7415L217.948 47.264ZM217.948 59.036L217.065 59.5056L217.069 59.5135L217.948 59.036ZM221.566 62.87L221.054 63.7293L221.062 63.7338L221.07 63.7382L221.566 62.87ZM231.61 62.87L232.106 63.7383L232.113 63.7345L231.61 62.87ZM235.282 59.036L236.161 59.5135L236.165 59.5056L235.282 59.036ZM212.576 53.096C212.576 50.209 213.159 47.7316 214.292 45.6329L212.532 44.6831C211.216 47.1204 210.576 49.935 210.576 53.096H212.576ZM214.295 45.6272C215.438 43.4757 216.987 41.8331 218.944 40.6721L217.924 38.9519C215.633 40.3109 213.834 42.2323 212.529 44.6888L214.295 45.6272ZM218.938 40.6758C220.935 39.5108 223.171 38.922 225.67 38.922V36.922C222.841 36.922 220.253 37.5931 217.93 38.9482L218.938 40.6758ZM225.67 38.922C227.81 38.922 229.787 39.4218 231.617 40.4199L232.575 38.6641C230.445 37.5022 228.137 36.922 225.67 36.922V38.922ZM231.63 40.4266C233.467 41.3953 234.836 42.6613 235.776 44.2171L237.488 43.1829C236.34 41.2827 234.685 39.7767 232.562 38.6574L231.63 40.4266ZM237.632 43.7V28.04H235.632V43.7H237.632ZM236.632 29.04H241.6V27.04H236.632V29.04ZM240.6 28.04V68H242.6V28.04H240.6ZM241.6 67H236.632V69H241.6V67ZM237.632 68V62.438H235.632V68H237.632ZM235.756 61.9554C234.878 63.5495 233.569 64.8848 231.795 65.9559L232.829 67.6681C234.871 66.4352 236.442 64.8545 237.508 62.9206L235.756 61.9554ZM231.807 65.9488C230.075 66.962 228.023 67.486 225.616 67.486V69.486C228.321 69.486 230.733 68.894 232.817 67.6752L231.807 65.9488ZM225.616 67.486C223.161 67.486 220.946 66.8831 218.948 65.6845L217.919 67.3995C220.242 68.7929 222.815 69.486 225.616 69.486V67.486ZM218.955 65.6884C216.995 64.4927 215.443 62.814 214.298 60.6245L212.526 61.5515C213.829 64.042 215.625 65.9993 217.913 67.3956L218.955 65.6884ZM214.298 60.6245C213.158 58.4454 212.576 55.944 212.576 53.096H210.576C210.576 56.224 211.218 59.0506 212.526 61.5515L214.298 60.6245ZM237.632 53.15C237.632 50.7819 237.154 48.6679 236.161 46.8405L234.403 47.7955C235.21 49.2801 235.632 51.0541 235.632 53.15H237.632ZM236.161 46.8405C235.176 45.0292 233.821 43.6269 232.097 42.6648L231.123 44.4112C232.495 45.1771 233.588 46.2948 234.403 47.7955L236.161 46.8405ZM232.121 42.6787C230.448 41.6825 228.596 41.188 226.588 41.188V43.188C228.252 43.188 229.748 43.5935 231.098 44.3973L232.121 42.6787ZM226.588 41.188C224.588 41.188 222.741 41.6607 221.07 42.6158L222.062 44.3522C223.415 43.5793 224.916 43.188 226.588 43.188V41.188ZM221.07 42.6158C219.383 43.5795 218.05 44.9812 217.069 46.7865L218.827 47.7415C219.645 46.2348 220.725 45.1165 222.062 44.3522L221.07 42.6158ZM217.069 46.7865C216.076 48.6139 215.598 50.7279 215.598 53.096H217.598C217.598 51.0001 218.02 49.2261 218.827 47.7415L217.069 46.7865ZM215.598 53.096C215.598 55.4978 216.075 57.6447 217.065 59.5056L218.831 58.5664C218.021 57.0433 217.598 55.2302 217.598 53.096H215.598ZM217.069 59.5135C218.049 61.3158 219.377 62.7308 221.054 63.7293L222.077 62.0107C220.731 61.2092 219.647 60.0682 218.827 58.5585L217.069 59.5135ZM221.07 63.7382C222.741 64.6933 224.588 65.166 226.588 65.166V63.166C224.916 63.166 223.415 62.7747 222.062 62.0018L221.07 63.7382ZM226.588 65.166C228.588 65.166 230.435 64.6933 232.106 63.7382L231.114 62.0018C229.761 62.7747 228.26 63.166 226.588 63.166V65.166ZM232.113 63.7345C233.827 62.7375 235.178 61.3217 236.161 59.5135L234.403 58.5585C233.586 60.0623 232.488 61.2025 231.107 62.0055L232.113 63.7345ZM236.165 59.5056C237.153 57.6469 237.632 55.5187 237.632 53.15H235.632C235.632 55.2453 235.21 57.0411 234.399 58.5664L236.165 59.5056ZM270.64 39.326L270.165 40.2059L270.172 40.2096L270.179 40.2132L270.64 39.326ZM274.852 43.592L273.968 44.0591L273.971 44.0656L273.975 44.072L274.852 43.592ZM276.418 68V69H277.418V68H276.418ZM271.558 68H270.558V69H271.558V68ZM269.344 44.51L268.612 45.1918L268.62 45.2001L269.344 44.51ZM257.086 44.564L256.363 43.8731L256.355 43.8817L257.086 44.564ZM254.818 68V69H255.818V68H254.818ZM249.904 68H248.904V69H249.904V68ZM249.904 28.04V27.04H248.904V28.04H249.904ZM254.818 28.04H255.818V27.04H254.818V28.04ZM254.818 42.62H253.818V46.0248L255.659 43.1608L254.818 42.62ZM258.814 39.11L258.382 38.2082L258.375 38.2118L258.814 39.11ZM264.592 38.868C266.674 38.868 268.524 39.3198 270.165 40.2059L271.115 38.4461C269.156 37.3882 266.975 36.868 264.592 36.868V38.868ZM270.179 40.2132C271.787 41.0493 273.048 42.3188 273.968 44.0591L275.736 43.1249C274.64 41.0492 273.094 39.4747 271.101 38.4388L270.179 40.2132ZM273.975 44.072C274.92 45.7996 275.418 47.9473 275.418 50.558H277.418C277.418 47.6967 276.872 45.2004 275.729 43.112L273.975 44.072ZM275.418 50.558V68H277.418V50.558H275.418ZM276.418 67H271.558V69H276.418V67ZM272.558 68V51.26H270.558V68H272.558ZM272.558 51.26C272.558 48.15 271.779 45.6149 270.068 43.8199L268.62 45.2001C269.861 46.5011 270.558 48.466 270.558 51.26H272.558ZM270.076 43.8283C268.376 42.0046 266.075 41.134 263.296 41.134V43.134C265.629 43.134 267.36 43.8474 268.612 45.1917L270.076 43.8283ZM263.296 41.134C260.478 41.134 258.13 42.0243 256.363 43.8731L257.809 45.2549C259.138 43.8637 260.931 43.134 263.296 43.134V41.134ZM256.355 43.8817C254.612 45.7495 253.818 48.3898 253.818 51.638H255.818C255.818 48.6942 256.536 46.6185 257.817 45.2463L256.355 43.8817ZM253.818 51.638V68H255.818V51.638H253.818ZM254.818 67H249.904V69H254.818V67ZM250.904 68V28.04H248.904V68H250.904ZM249.904 29.04H254.818V27.04H249.904V29.04ZM253.818 28.04V42.62H255.818V28.04H253.818ZM255.659 43.1608C256.528 41.8099 257.717 40.76 259.254 40.0082L258.375 38.2118C256.527 39.116 255.052 40.4061 253.977 42.0792L255.659 43.1608ZM259.246 40.0118C260.825 39.2552 262.601 38.868 264.592 38.868V36.868C262.335 36.868 260.259 37.3088 258.382 38.2082L259.246 40.0118ZM310.689 38.408H311.689V37.408H310.689V38.408ZM310.689 68V69H311.689V68H310.689ZM305.775 68H304.775V69H305.775V68ZM305.775 63.626H306.775V60.1108L304.925 63.0996L305.775 63.626ZM301.833 67.19L302.28 68.0845L302.288 68.0806L301.833 67.19ZM290.115 67.028L289.647 67.9118L289.654 67.9154L289.661 67.9189L290.115 67.028ZM285.741 62.708L284.864 63.188L284.867 63.1943L284.871 63.2006L285.741 62.708ZM284.175 38.408V37.408H283.175V38.408H284.175ZM289.035 38.408H290.035V37.408H289.035V38.408ZM291.249 61.844L290.517 62.5258L290.525 62.5341L291.249 61.844ZM303.507 61.736L302.776 61.0537L303.507 61.736ZM305.775 38.408V37.408H304.775V38.408H305.775ZM309.689 38.408V68H311.689V38.408H309.689ZM310.689 67H305.775V69H310.689V67ZM306.775 68V63.626H304.775V68H306.775ZM304.925 63.0996C304.092 64.4457 302.919 65.5125 301.378 66.2994L302.288 68.0806C304.131 67.1395 305.587 65.8303 306.625 64.1524L304.925 63.0996ZM301.386 66.2956C299.881 67.0481 298.2 67.432 296.325 67.432V69.432C298.482 69.432 300.473 68.9879 302.28 68.0844L301.386 66.2956ZM296.325 67.432C294.16 67.432 292.249 66.9933 290.569 66.1371L289.661 67.9189C291.653 68.9347 293.882 69.432 296.325 69.432V67.432ZM290.583 66.1442C288.925 65.2666 287.603 63.9669 286.611 62.2154L284.871 63.2006C286.039 65.2651 287.633 66.8454 289.647 67.9118L290.583 66.1442ZM286.618 62.228C285.673 60.5004 285.175 58.3527 285.175 55.742H283.175C283.175 58.6033 283.721 61.0996 284.864 63.188L286.618 62.228ZM285.175 55.742V38.408H283.175V55.742H285.175ZM284.175 39.408H289.035V37.408H284.175V39.408ZM288.035 38.408V55.094H290.035V38.408H288.035ZM288.035 55.094C288.035 58.1736 288.816 60.7002 290.518 62.5257L291.981 61.1623C290.73 59.8198 290.035 57.8464 290.035 55.094H288.035ZM290.525 62.5341C292.226 64.3181 294.525 65.166 297.297 65.166V63.166C294.957 63.166 293.224 62.4659 291.973 61.1539L290.525 62.5341ZM297.297 65.166C300.146 65.166 302.502 64.2785 304.238 62.4183L302.776 61.0537C301.488 62.4335 299.704 63.166 297.297 63.166V65.166ZM304.238 62.4183C305.981 60.5505 306.775 57.9102 306.775 54.662H304.775C304.775 57.6058 304.057 59.6815 302.776 61.0537L304.238 62.4183ZM306.775 54.662V38.408H304.775V54.662H306.775ZM305.775 39.408H310.689V37.408H305.775V39.408ZM323.9 43.916H322.9V47.6816L324.768 44.4121L323.9 43.916ZM328.328 39.596L328.826 40.4633L328.328 39.596ZM342.152 39.812L342.662 38.9519L342.152 39.812ZM347.174 45.158L346.291 45.6272L346.294 45.6329L347.174 45.158ZM347.174 61.088L348.06 61.5515L347.174 61.088ZM342.098 66.542L341.584 65.6845L341.577 65.6884L342.098 66.542ZM328.22 66.812L327.715 67.6752L327.722 67.6793L328.22 66.812ZM323.9 62.546L324.772 62.0557L322.9 58.7285V62.546H323.9ZM323.9 68V69H324.9V68H323.9ZM318.986 68H317.986V69H318.986V68ZM318.986 28.04V27.04H317.986V28.04H318.986ZM323.9 28.04H324.9V27.04H323.9V28.04ZM342.638 47.264L343.517 46.7865L342.638 47.264ZM338.966 43.484L338.47 44.3523L338.479 44.3572L338.966 43.484ZM328.922 43.538L329.418 44.4063L329.425 44.4025L328.922 43.538ZM325.25 47.372L324.375 46.8879L324.372 46.8945L325.25 47.372ZM325.25 59.036L324.367 59.5056L324.373 59.5169L324.38 59.5281L325.25 59.036ZM328.922 62.87L328.411 63.7293L328.423 63.7364L328.435 63.7432L328.922 62.87ZM338.966 62.87L339.462 63.7383L339.469 63.7345L338.966 62.87ZM342.638 59.036L343.517 59.5135L343.521 59.5056L342.638 59.036ZM324.768 44.4121C325.679 42.8182 327.02 41.5001 328.826 40.4633L327.83 38.7287C325.748 39.9239 324.137 41.4858 323.032 43.4199L324.768 44.4121ZM328.826 40.4633C330.603 39.4434 332.641 38.922 334.97 38.922V36.922C332.331 36.922 329.942 37.5166 327.83 38.7287L328.826 40.4633ZM334.97 38.922C337.469 38.922 339.684 39.5108 341.642 40.6721L342.662 38.9519C340.372 37.5932 337.799 36.922 334.97 36.922V38.922ZM341.642 40.6721C343.599 41.8331 345.148 43.4757 346.291 45.6272L348.057 44.6888C346.752 42.2323 344.953 40.3109 342.662 38.9519L341.642 40.6721ZM346.294 45.6329C347.427 47.7316 348.01 50.209 348.01 53.096H350.01C350.01 49.935 349.37 47.1204 348.054 44.6831L346.294 45.6329ZM348.01 53.096C348.01 55.944 347.428 58.4454 346.288 60.6245L348.06 61.5515C349.368 59.0506 350.01 56.224 350.01 53.096H348.01ZM346.288 60.6245C345.145 62.8097 343.578 64.4878 341.584 65.6845L342.613 67.3995C344.938 66.0042 346.755 64.0463 348.06 61.5515L346.288 60.6245ZM341.577 65.6884C339.619 66.8832 337.425 67.486 334.97 67.486V69.486C337.771 69.486 340.329 68.7928 342.619 67.3956L341.577 65.6884ZM334.97 67.486C332.564 67.486 330.49 66.9622 328.718 65.9447L327.722 67.6793C329.838 68.8938 332.264 69.486 334.97 69.486V67.486ZM328.725 65.9488C326.952 64.9118 325.647 63.6119 324.772 62.0557L323.029 63.0363C324.097 64.9361 325.672 66.4802 327.715 67.6752L328.725 65.9488ZM322.9 62.546V68H324.9V62.546H322.9ZM323.9 67H318.986V69H323.9V67ZM319.986 68V28.04H317.986V68H319.986ZM318.986 29.04H323.9V27.04H318.986V29.04ZM322.9 28.04V43.916H324.9V28.04H322.9ZM344.988 53.096C344.988 50.7279 344.51 48.6139 343.517 46.7865L341.76 47.7415C342.566 49.2261 342.988 51.0001 342.988 53.096H344.988ZM343.517 46.7865C342.532 44.9752 341.177 43.5729 339.453 42.6108L338.479 44.3572C339.851 45.1231 340.944 46.2408 341.76 47.7415L343.517 46.7865ZM339.462 42.6158C337.791 41.6607 335.944 41.188 333.944 41.188V43.188C335.616 43.188 337.117 43.5793 338.47 44.3522L339.462 42.6158ZM333.944 41.188C331.969 41.188 330.121 41.6843 328.42 42.6735L329.425 44.4025C330.819 43.5917 332.32 43.188 333.944 43.188V41.188ZM328.426 42.6698C326.738 43.6345 325.39 45.0538 324.375 46.8879L326.125 47.8561C326.983 46.3062 328.083 45.1695 329.418 44.4062L328.426 42.6698ZM324.372 46.8945C323.38 48.7196 322.9 50.8149 322.9 53.15H324.9C324.9 51.0931 325.321 49.3364 326.129 47.8495L324.372 46.8945ZM322.9 53.15C322.9 55.5187 323.379 57.6469 324.367 59.5056L326.133 58.5664C325.322 57.0411 324.9 55.2453 324.9 53.15H322.9ZM324.38 59.5281C325.394 61.323 326.737 62.7331 328.411 63.7293L329.434 62.0107C328.083 61.2069 326.978 60.061 326.121 58.5439L324.38 59.5281ZM328.435 63.7432C330.134 64.6917 331.976 65.166 333.944 65.166V63.166C332.312 63.166 330.806 62.7763 329.409 61.9968L328.435 63.7432ZM333.944 65.166C335.944 65.166 337.791 64.6933 339.462 63.7382L338.47 62.0018C337.117 62.7747 335.616 63.166 333.944 63.166V65.166ZM339.469 63.7345C341.184 62.7375 342.534 61.3217 343.517 59.5135L341.76 58.5585C340.942 60.0623 339.845 61.2025 338.464 62.0055L339.469 63.7345ZM343.521 59.5056C344.511 57.6447 344.988 55.4978 344.988 53.096H342.988C342.988 55.2302 342.565 57.0433 341.755 58.5664L343.521 59.5056ZM354.668 67.352L353.961 68.0591V68.0591L354.668 67.352ZM354.668 62.6L355.375 63.3071L354.668 62.6ZM359.312 62.6L358.585 63.2866L358.595 63.297L358.605 63.3071L359.312 62.6ZM359.312 67.352L358.605 66.6449L358.595 66.655L358.585 66.6654L359.312 67.352ZM357.044 67.324C356.367 67.324 355.831 67.1009 355.375 66.6449L353.961 68.0591C354.801 68.8991 355.849 69.324 357.044 69.324V67.324ZM355.375 66.6449C354.919 66.1889 354.696 65.6531 354.696 64.976H352.696C352.696 66.1709 353.121 67.2191 353.961 68.0591L355.375 66.6449ZM354.696 64.976C354.696 64.2989 354.919 63.7631 355.375 63.3071L353.961 61.8929C353.121 62.7329 352.696 63.7811 352.696 64.976H354.696ZM355.375 63.3071C355.831 62.8511 356.367 62.628 357.044 62.628V60.628C355.849 60.628 354.801 61.0529 353.961 61.8929L355.375 63.3071ZM357.044 62.628C357.672 62.628 358.164 62.8408 358.585 63.2866L360.039 61.9134C359.236 61.0632 358.216 60.628 357.044 60.628V62.628ZM358.605 63.3071C359.061 63.7631 359.284 64.2989 359.284 64.976H361.284C361.284 63.7811 360.859 62.7329 360.019 61.8929L358.605 63.3071ZM359.284 64.976C359.284 65.6531 359.061 66.1889 358.605 66.6449L360.019 68.0591C360.859 67.2191 361.284 66.1709 361.284 64.976H359.284ZM358.585 66.6654C358.164 67.1112 357.672 67.324 357.044 67.324V69.324C358.216 69.324 359.236 68.8888 360.039 68.0386L358.585 66.6654ZM366.816 45.158L367.696 45.6329L367.699 45.6272L366.816 45.158ZM371.838 39.812L371.334 38.9482L371.328 38.9519L371.838 39.812ZM385.5 39.542L385.021 40.42L385.034 40.4266L385.5 39.542ZM390.036 43.7L389.18 44.2171L391.036 47.289V43.7H390.036ZM390.036 28.04V27.04H389.036V28.04H390.036ZM395.004 28.04H396.004V27.04H395.004V28.04ZM395.004 68V69H396.004V68H395.004ZM390.036 68H389.036V69H390.036V68ZM390.036 62.438H391.036L389.16 61.9554L390.036 62.438ZM385.716 66.812L386.221 67.6753L386.233 67.6681L385.716 66.812ZM371.838 66.542L371.317 67.3957L371.324 67.3995L371.838 66.542ZM366.816 61.088L367.702 60.6245L366.816 61.088ZM385.014 43.538L384.503 44.3973L384.515 44.4044L384.527 44.4112L385.014 43.538ZM374.97 43.484L374.474 42.6158L374.97 43.484ZM371.352 47.264L372.231 47.7415L371.352 47.264ZM371.352 59.036L370.469 59.5056L370.474 59.5135L371.352 59.036ZM374.97 62.87L374.459 63.7293L374.466 63.7338L374.474 63.7382L374.97 62.87ZM385.014 62.87L385.51 63.7383L385.517 63.7345L385.014 62.87ZM388.686 59.036L389.565 59.5135L389.569 59.5056L388.686 59.036ZM365.98 53.096C365.98 50.209 366.564 47.7316 367.696 45.6329L365.936 44.6831C364.621 47.1204 363.98 49.935 363.98 53.096H365.98ZM367.699 45.6272C368.842 43.4757 370.391 41.8331 372.348 40.6721L371.328 38.9519C369.037 40.3109 367.238 42.2323 365.933 44.6888L367.699 45.6272ZM372.342 40.6758C374.339 39.5108 376.575 38.922 379.074 38.922V36.922C376.245 36.922 373.657 37.5931 371.334 38.9482L372.342 40.6758ZM379.074 38.922C381.215 38.922 383.192 39.4218 385.021 40.4199L385.979 38.6641C383.849 37.5022 381.542 36.922 379.074 36.922V38.922ZM385.034 40.4266C386.871 41.3953 388.24 42.6613 389.18 44.2171L390.892 43.1829C389.744 41.2827 388.089 39.7767 385.967 38.6574L385.034 40.4266ZM391.036 43.7V28.04H389.036V43.7H391.036ZM390.036 29.04H395.004V27.04H390.036V29.04ZM394.004 28.04V68H396.004V28.04H394.004ZM395.004 67H390.036V69H395.004V67ZM391.036 68V62.438H389.036V68H391.036ZM389.16 61.9554C388.282 63.5495 386.973 64.8848 385.199 65.9559L386.233 67.6681C388.275 66.4352 389.846 64.8545 390.912 62.9206L389.16 61.9554ZM385.211 65.9488C383.479 66.962 381.427 67.486 379.02 67.486V69.486C381.726 69.486 384.137 68.894 386.221 67.6752L385.211 65.9488ZM379.02 67.486C376.565 67.486 374.35 66.8831 372.353 65.6845L371.324 67.3995C373.646 68.7929 376.219 69.486 379.02 69.486V67.486ZM372.359 65.6884C370.4 64.4927 368.848 62.814 367.702 60.6245L365.93 61.5515C367.233 64.042 369.029 65.9993 371.317 67.3956L372.359 65.6884ZM367.702 60.6245C366.562 58.4454 365.98 55.944 365.98 53.096H363.98C363.98 56.224 364.622 59.0506 365.93 61.5515L367.702 60.6245ZM391.036 53.15C391.036 50.7819 390.558 48.6679 389.565 46.8405L387.808 47.7955C388.614 49.2801 389.036 51.0541 389.036 53.15H391.036ZM389.565 46.8405C388.58 45.0292 387.225 43.6269 385.502 42.6648L384.527 44.4112C385.899 45.1771 386.992 46.2948 387.808 47.7955L389.565 46.8405ZM385.526 42.6787C383.852 41.6825 382 41.188 379.992 41.188V43.188C381.656 43.188 383.152 43.5935 384.503 44.3973L385.526 42.6787ZM379.992 41.188C377.992 41.188 376.145 41.6607 374.474 42.6158L375.466 44.3522C376.819 43.5793 378.32 43.188 379.992 43.188V41.188ZM374.474 42.6158C372.787 43.5795 371.455 44.9812 370.474 46.7865L372.231 47.7415C373.05 46.2348 374.129 45.1165 375.466 44.3522L374.474 42.6158ZM370.474 46.7865C369.48 48.6139 369.002 50.7279 369.002 53.096H371.002C371.002 51.0001 371.424 49.2261 372.231 47.7415L370.474 46.7865ZM369.002 53.096C369.002 55.4978 369.479 57.6447 370.469 59.5056L372.235 58.5664C371.425 57.0433 371.002 55.2302 371.002 53.096H369.002ZM370.474 59.5135C371.453 61.3158 372.781 62.7308 374.459 63.7293L375.482 62.0107C374.135 61.2092 373.051 60.0682 372.231 58.5585L370.474 59.5135ZM374.474 63.7382C376.145 64.6933 377.992 65.166 379.992 65.166V63.166C378.32 63.166 376.819 62.7747 375.466 62.0018L374.474 63.7382ZM379.992 65.166C381.992 65.166 383.839 64.6933 385.51 63.7382L384.518 62.0018C383.165 62.7747 381.664 63.166 379.992 63.166V65.166ZM385.517 63.7345C387.232 62.7375 388.582 61.3217 389.565 59.5135L387.808 58.5585C386.99 60.0623 385.893 61.2025 384.512 62.0055L385.517 63.7345ZM389.569 59.5056C390.558 57.6469 391.036 55.5187 391.036 53.15H389.036C389.036 55.2453 388.615 57.0411 387.803 58.5664L389.569 59.5056ZM430.146 55.04V56.04H431.048L431.141 55.1429L430.146 55.04ZM406.494 55.04V54.04H405.431L405.496 55.1016L406.494 55.04ZM409.464 61.898L408.787 62.6339L408.795 62.641L408.803 62.6478L409.464 61.898ZM421.398 62.87L421.968 63.6922L421.972 63.6892L421.398 62.87ZM424.422 58.874V57.874H423.711L423.478 58.5455L424.422 58.874ZM429.714 58.874L430.678 59.1423L431.031 57.874H429.714V58.874ZM424.962 65.84L425.559 66.6429L425.566 66.6371L424.962 65.84ZM408.546 66.596L408.049 67.4634L408.055 67.4668L408.546 66.596ZM403.362 61.25L402.482 61.7241L402.485 61.7298L403.362 61.25ZM403.308 45.104L404.191 45.5732L403.308 45.104ZM408.438 39.812L408.925 40.6855L408.93 40.6828L408.438 39.812ZM423.558 39.758L423.065 40.628V40.628L423.558 39.758ZM428.526 44.834L427.644 45.3046L427.649 45.3134L427.654 45.3222L428.526 44.834ZM425.232 51.044V52.044H426.232V51.044H425.232ZM423.99 46.238L423.135 46.7558L423.141 46.7659L423.99 46.238ZM420.588 43.16L420.132 44.0498L420.146 44.0568L420.159 44.0633L420.588 43.16ZM409.518 44.456L408.85 43.7119L408.843 43.7188L409.518 44.456ZM406.548 51.044L405.552 50.9546L405.455 52.044H406.548V51.044ZM429.308 52.07C429.308 52.9678 429.257 53.9233 429.152 54.9371L431.141 55.1429C431.252 54.0687 431.308 53.0442 431.308 52.07H429.308ZM430.146 54.04H406.494V56.04H430.146V54.04ZM405.496 55.1016C405.689 58.222 406.761 60.7699 408.787 62.6339L410.141 61.1621C408.568 59.7141 407.66 57.69 407.492 54.9784L405.496 55.1016ZM408.803 62.6478C410.833 64.439 413.286 65.328 416.106 65.328V63.328C413.742 63.328 411.768 62.597 410.126 61.1482L408.803 62.6478ZM416.106 65.328C418.384 65.328 420.36 64.8055 421.968 63.6922L420.829 62.0478C419.629 62.8785 418.077 63.328 416.106 63.328V65.328ZM421.972 63.6892C423.584 62.561 424.722 61.0576 425.367 59.2025L423.478 58.5455C422.971 60.0024 422.093 61.163 420.825 62.0508L421.972 63.6892ZM424.422 59.874H429.714V57.874H424.422V59.874ZM428.751 58.6057C428.018 61.2367 426.562 63.3737 424.359 65.0429L425.566 66.6371C428.115 64.7063 429.826 62.1993 430.678 59.1423L428.751 58.6057ZM424.366 65.0371C422.194 66.6499 419.462 67.486 416.106 67.486V69.486C419.807 69.486 422.979 68.5581 425.559 66.6429L424.366 65.0371ZM416.106 67.486C413.454 67.486 411.106 66.8926 409.038 65.7252L408.055 67.4668C410.451 68.8194 413.143 69.486 416.106 69.486V67.486ZM409.044 65.7286C407.014 64.5639 405.415 62.9188 404.24 60.7702L402.485 61.7298C403.83 64.1892 405.687 66.1081 408.049 67.4634L409.044 65.7286ZM404.243 60.7759C403.072 58.6023 402.472 56.0698 402.472 53.15H400.472C400.472 56.3502 401.132 59.2177 402.482 61.7241L404.243 60.7759ZM402.472 53.15C402.472 50.2253 403.057 47.7096 404.191 45.5732L402.425 44.6348C401.112 47.1064 400.472 49.9547 400.472 53.15H402.472ZM404.191 45.5732C405.329 43.4325 406.904 41.812 408.925 40.6855L407.952 38.9385C405.581 40.26 403.736 42.1675 402.425 44.6348L404.191 45.5732ZM408.93 40.6828C410.994 39.5176 413.377 38.922 416.106 38.922V36.922C413.076 36.922 410.347 37.5864 407.947 38.9412L408.93 40.6828ZM416.106 38.922C418.765 38.922 421.075 39.4999 423.065 40.628L424.051 38.888C421.722 37.5681 419.064 36.922 416.106 36.922V38.922ZM423.065 40.628C425.063 41.7599 426.583 43.3145 427.644 45.3046L429.409 44.3634C428.166 42.0335 426.374 40.2041 424.051 38.888L423.065 40.628ZM427.654 45.3222C428.749 47.2811 429.308 49.5218 429.308 52.07H431.308C431.308 49.2182 430.679 46.6349 429.399 44.3458L427.654 45.3222ZM426.232 51.044C426.232 49.0219 425.784 47.2289 424.84 45.7101L423.141 46.7659C423.853 47.9111 424.232 49.3221 424.232 51.044H426.232ZM424.846 45.7202C423.917 44.1853 422.635 43.025 421.017 42.2567L420.159 44.0633C421.422 44.663 422.408 45.5547 423.135 46.7558L424.846 45.7202ZM421.045 42.2702C419.486 41.4711 417.762 41.08 415.89 41.08V43.08C417.475 43.08 418.882 43.4089 420.132 44.0498L421.045 42.2702ZM415.89 41.08C413.173 41.08 410.807 41.9547 408.85 43.7119L410.187 45.2C411.758 43.7893 413.64 43.08 415.89 43.08V41.08ZM408.843 43.7188C406.895 45.5041 405.822 47.9514 405.552 50.9546L407.544 51.1334C407.779 48.5206 408.686 46.5759 410.194 45.1932L408.843 43.7188ZM406.548 52.044H425.232V50.044H406.548V52.044ZM447.811 63.464L446.872 63.8098L447.813 66.3633L448.75 63.808L447.811 63.464ZM456.991 38.408V37.408H456.292L456.052 38.064L456.991 38.408ZM462.229 38.408L463.16 38.7732L463.695 37.408H462.229V38.408ZM450.619 68V69H451.301L451.55 68.3652L450.619 68ZM444.895 68L443.964 68.3652L444.213 69H444.895V68ZM433.285 38.408V37.408H431.818L432.354 38.7732L433.285 38.408ZM438.577 38.408L439.515 38.0622L439.274 37.408H438.577V38.408ZM448.75 63.808L457.93 38.752L456.052 38.064L446.872 63.12L448.75 63.808ZM456.991 39.408H462.229V37.408H456.991V39.408ZM461.298 38.0428L449.688 67.6348L451.55 68.3652L463.16 38.7732L461.298 38.0428ZM450.619 67H444.895V69H450.619V67ZM445.826 67.6348L434.216 38.0428L432.354 38.7732L443.964 68.3652L445.826 67.6348ZM433.285 39.408H438.577V37.408H433.285V39.408ZM437.638 38.7538L446.872 63.8098L448.749 63.1182L439.515 38.0622L437.638 38.7538Z" fill="#A5A5A5" mask="url(#path-3-outside-2_236_123)"/>
</svg>
