<svg width="206" height="40" viewBox="0 0 206 40" fill="none" xmlns="http://www.w3.org/2000/svg">
<path d="M60.032 19.624C60.032 17.992 60.4 16.528 61.136 15.232C61.872 13.92 62.872 12.896 64.136 12.16C65.416 11.424 66.832 11.056 68.384 11.056C70.208 11.056 71.8 11.496 73.16 12.376C74.52 13.256 75.512 14.504 76.136 16.12H73.52C73.056 15.112 72.384 14.336 71.504 13.792C70.64 13.248 69.6 12.976 68.384 12.976C67.216 12.976 66.168 13.248 65.24 13.792C64.312 14.336 63.584 15.112 63.056 16.12C62.528 17.112 62.264 18.28 62.264 19.624C62.264 20.952 62.528 22.12 63.056 23.128C63.584 24.12 64.312 24.888 65.24 25.432C66.168 25.976 67.216 26.248 68.384 26.248C69.6 26.248 70.64 25.984 71.504 25.456C72.384 24.912 73.056 24.136 73.52 23.128H76.136C75.512 24.728 74.52 25.968 73.16 26.848C71.8 27.712 70.208 28.144 68.384 28.144C66.832 28.144 65.416 27.784 64.136 27.064C62.872 26.328 61.872 25.312 61.136 24.016C60.4 22.72 60.032 21.256 60.032 19.624ZM85.1231 28.216C83.8911 28.216 82.7711 27.936 81.7631 27.376C80.7711 26.816 79.9871 26.024 79.4111 25C78.8511 23.96 78.5711 22.76 78.5711 21.4C78.5711 20.056 78.8591 18.872 79.4351 17.848C80.0271 16.808 80.8271 16.016 81.8351 15.472C82.8431 14.912 83.9711 14.632 85.2191 14.632C86.4671 14.632 87.5951 14.912 88.6031 15.472C89.6111 16.016 90.4031 16.8 90.9791 17.824C91.5711 18.848 91.8671 20.04 91.8671 21.4C91.8671 22.76 91.5631 23.96 90.9551 25C90.3631 26.024 89.5551 26.816 88.5311 27.376C87.5071 27.936 86.3711 28.216 85.1231 28.216ZM85.1231 26.296C85.9071 26.296 86.6431 26.112 87.3311 25.744C88.0191 25.376 88.5711 24.824 88.9871 24.088C89.4191 23.352 89.6351 22.456 89.6351 21.4C89.6351 20.344 89.4271 19.448 89.0111 18.712C88.5951 17.976 88.0511 17.432 87.3791 17.08C86.7071 16.712 85.9791 16.528 85.1951 16.528C84.3951 16.528 83.6591 16.712 82.9871 17.08C82.3311 17.432 81.8031 17.976 81.4031 18.712C81.0031 19.448 80.8031 20.344 80.8031 21.4C80.8031 22.472 80.9951 23.376 81.3791 24.112C81.7791 24.848 82.3071 25.4 82.9631 25.768C83.6191 26.12 84.3391 26.296 85.1231 26.296ZM93.9226 21.376C93.9226 20.032 94.1946 18.856 94.7386 17.848C95.2826 16.824 96.0266 16.032 96.9706 15.472C97.9306 14.912 99.0026 14.632 100.187 14.632C101.211 14.632 102.163 14.872 103.043 15.352C103.923 15.816 104.595 16.432 105.059 17.2V10.24H107.267V28H105.059V25.528C104.627 26.312 103.987 26.96 103.139 27.472C102.291 27.968 101.299 28.216 100.163 28.216C98.9946 28.216 97.9306 27.928 96.9706 27.352C96.0266 26.776 95.2826 25.968 94.7386 24.928C94.1946 23.888 93.9226 22.704 93.9226 21.376ZM105.059 21.4C105.059 20.408 104.859 19.544 104.459 18.808C104.059 18.072 103.515 17.512 102.827 17.128C102.155 16.728 101.411 16.528 100.595 16.528C99.7786 16.528 99.0346 16.72 98.3626 17.104C97.6906 17.488 97.1546 18.048 96.7546 18.784C96.3546 19.52 96.1546 20.384 96.1546 21.376C96.1546 22.384 96.3546 23.264 96.7546 24.016C97.1546 24.752 97.6906 25.32 98.3626 25.72C99.0346 26.104 99.7786 26.296 100.595 26.296C101.411 26.296 102.155 26.104 102.827 25.72C103.515 25.32 104.059 24.752 104.459 24.016C104.859 23.264 105.059 22.392 105.059 21.4ZM117.485 14.608C118.477 14.608 119.373 14.824 120.173 15.256C120.973 15.672 121.597 16.304 122.045 17.152C122.509 18 122.741 19.032 122.741 20.248V28H120.581V20.56C120.581 19.248 120.253 18.248 119.597 17.56C118.941 16.856 118.045 16.504 116.909 16.504C115.757 16.504 114.837 16.864 114.149 17.584C113.477 18.304 113.141 19.352 113.141 20.728V28H110.957V10.24H113.141V16.72C113.573 16.048 114.165 15.528 114.917 15.16C115.685 14.792 116.541 14.608 117.485 14.608ZM137.973 14.848V28H135.789V26.056C135.373 26.728 134.789 27.256 134.037 27.64C133.301 28.008 132.485 28.192 131.589 28.192C130.565 28.192 129.645 27.984 128.829 27.568C128.013 27.136 127.365 26.496 126.885 25.648C126.421 24.8 126.189 23.768 126.189 22.552V14.848H128.349V22.264C128.349 23.56 128.677 24.56 129.333 25.264C129.989 25.952 130.885 26.296 132.021 26.296C133.189 26.296 134.109 25.936 134.781 25.216C135.453 24.496 135.789 23.448 135.789 22.072V14.848H137.973ZM143.845 17.296C144.293 16.512 144.949 15.872 145.812 15.376C146.677 14.88 147.661 14.632 148.765 14.632C149.949 14.632 151.013 14.912 151.957 15.472C152.901 16.032 153.645 16.824 154.189 17.848C154.733 18.856 155.005 20.032 155.005 21.376C155.005 22.704 154.733 23.888 154.189 24.928C153.645 25.968 152.892 26.776 151.932 27.352C150.989 27.928 149.933 28.216 148.765 28.216C147.629 28.216 146.629 27.968 145.765 27.472C144.917 26.976 144.277 26.344 143.845 25.576V28H141.661V10.24H143.845V17.296ZM152.773 21.376C152.773 20.384 152.573 19.52 152.173 18.784C151.773 18.048 151.229 17.488 150.541 17.104C149.869 16.72 149.125 16.528 148.309 16.528C147.509 16.528 146.765 16.728 146.077 17.128C145.405 17.512 144.861 18.08 144.445 18.832C144.045 19.568 143.845 20.424 143.845 21.4C143.845 22.392 144.045 23.264 144.445 24.016C144.861 24.752 145.405 25.32 146.077 25.72C146.765 26.104 147.509 26.296 148.309 26.296C149.125 26.296 149.869 26.104 150.541 25.72C151.229 25.32 151.773 24.752 152.173 24.016C152.573 23.264 152.773 22.384 152.773 21.376Z" fill="#0E0E0E"/>
<path d="M158.575 28.144C158.159 28.144 157.807 28 157.519 27.712C157.231 27.424 157.087 27.072 157.087 26.656C157.087 26.24 157.231 25.888 157.519 25.6C157.807 25.312 158.159 25.168 158.575 25.168C158.975 25.168 159.311 25.312 159.583 25.6C159.871 25.888 160.015 26.24 160.015 26.656C160.015 27.072 159.871 27.424 159.583 27.712C159.311 28 158.975 28.144 158.575 28.144ZM162.102 21.376C162.102 20.032 162.374 18.856 162.918 17.848C163.462 16.824 164.206 16.032 165.15 15.472C166.11 14.912 167.182 14.632 168.366 14.632C169.39 14.632 170.342 14.872 171.222 15.352C172.102 15.816 172.774 16.432 173.238 17.2V10.24H175.446V28H173.238V25.528C172.806 26.312 172.166 26.96 171.318 27.472C170.47 27.968 169.478 28.216 168.342 28.216C167.174 28.216 166.11 27.928 165.15 27.352C164.206 26.776 163.462 25.968 162.918 24.928C162.374 23.888 162.102 22.704 162.102 21.376ZM173.238 21.4C173.238 20.408 173.038 19.544 172.638 18.808C172.238 18.072 171.694 17.512 171.006 17.128C170.334 16.728 169.59 16.528 168.774 16.528C167.958 16.528 167.214 16.72 166.542 17.104C165.87 17.488 165.334 18.048 164.934 18.784C164.534 19.52 164.334 20.384 164.334 21.376C164.334 22.384 164.534 23.264 164.934 24.016C165.334 24.752 165.87 25.32 166.542 25.72C167.214 26.104 167.958 26.296 168.774 26.296C169.59 26.296 170.334 26.104 171.006 25.72C171.694 25.32 172.238 24.752 172.638 24.016C173.038 23.264 173.238 22.392 173.238 21.4ZM191.137 20.92C191.137 21.336 191.113 21.776 191.065 22.24H180.553C180.633 23.536 181.073 24.552 181.873 25.288C182.689 26.008 183.673 26.368 184.825 26.368C185.769 26.368 186.553 26.152 187.177 25.72C187.817 25.272 188.265 24.68 188.521 23.944H190.873C190.521 25.208 189.817 26.24 188.761 27.04C187.705 27.824 186.393 28.216 184.825 28.216C183.577 28.216 182.457 27.936 181.465 27.376C180.489 26.816 179.721 26.024 179.161 25C178.601 23.96 178.321 22.76 178.321 21.4C178.321 20.04 178.593 18.848 179.137 17.824C179.681 16.8 180.441 16.016 181.417 15.472C182.409 14.912 183.545 14.632 184.825 14.632C186.073 14.632 187.177 14.904 188.137 15.448C189.097 15.992 189.833 16.744 190.345 17.704C190.873 18.648 191.137 19.72 191.137 20.92ZM188.881 20.464C188.881 19.632 188.697 18.92 188.329 18.328C187.961 17.72 187.457 17.264 186.817 16.96C186.193 16.64 185.497 16.48 184.729 16.48C183.625 16.48 182.681 16.832 181.897 17.536C181.129 18.24 180.689 19.216 180.577 20.464H188.881ZM198.916 25.984L202.996 14.848H205.324L200.164 28H197.62L192.46 14.848H194.812L198.916 25.984Z" fill="#4A4A4A"/>
<path fill-rule="evenodd" clip-rule="evenodd" d="M20.0005 40.001C30.9797 40.001 39.8926 31.1544 40 20.2006C24.9733 21.4073 20.7845 25.9149 20.0005 40.001ZM20.0005 40.001H20.0005V20.0005V0C20.7845 14.086 24.9733 18.5937 40 19.8004C39.8926 8.84659 30.9797 0 20.0005 0H20.0005C8.9545 1.95853e-05 0 8.95454 0 20.0005C0 31.0464 8.9545 40.001 20.0005 40.001ZM20.0005 40.001C11.0487 22.877 11.8956 13.8953 20.0005 0V21.6167V40.001Z" fill="#0E0E0E"/>
</svg>
