<svg width="120" height="120" viewBox="0 0 120 120" fill="none" xmlns="http://www.w3.org/2000/svg">
<path d="M120 60C120 93.1371 93.1371 120 60 120C26.8629 120 0 93.1371 0 60C0 26.8629 26.8629 0 60 0C93.1371 0 120 26.8629 120 60ZM3.00439 60C3.00439 91.4778 28.5222 116.996 60 116.996C91.4778 116.996 116.996 91.4778 116.996 60C116.996 28.5222 91.4778 3.00439 60 3.00439C28.5222 3.00439 3.00439 28.5222 3.00439 60Z" fill="white" fill-opacity="0.8"/>
<path fill-rule="evenodd" clip-rule="evenodd" d="M99.998 59.5998C69.9454 57.1865 61.568 48.1714 60 20C81.9578 20 99.7833 37.6928 99.998 59.5998ZM60 100C81.9578 100 99.7833 82.3072 99.998 60.4002C69.9454 62.8135 61.568 71.8286 60 100ZM20 60C20 37.9086 37.9086 20 60 20C43.7907 47.7899 42.097 65.7529 60 100C37.9086 100 20 82.0914 20 60Z" fill="white" fill-opacity="0.8"/>
</svg>
